<svg width="18" height="18" viewBox="0 0 12 12" fill="#f9fafb" xmlns="http://www.w3.org/2000/svg"><g clip-path="url(#clip0_5259_76307)"><path d="M10.0927 5.72682L7.64504 0.831594C7.55787 0.612812 7.33396 0.476074 7.07074 0.476074H5.89479C5.41278 0.476074 5.1017 0.99568 5.32049 1.43324L7.46728 5.72682L5.32049 10.0204C5.1017 10.458 5.41107 10.9776 5.93581 10.9776H7.07074C7.28952 10.9776 7.55787 10.8408 7.64504 10.6221L10.0927 5.72682Z" fill="white"></path><path d="M6.58936 5.72682L4.10072 0.831594C4.01355 0.612812 3.78964 0.476074 3.52642 0.476074H2.39149C1.90949 0.476074 1.59841 0.99568 1.81719 1.43324L3.96398 5.72682L1.81719 10.0204C1.59841 10.458 1.90778 10.9776 2.43251 10.9776H3.56744C3.78622 10.9776 4.01013 10.8408 4.14174 10.6221L6.58936 5.72682Z" fill="white"></path></g></svg>