<svg xmlns="http://www.w3.org/2000/svg" xmlns:xlink="http://www.w3.org/1999/xlink" viewBox="0 0 32 32" width="32" height="32" preserveAspectRatio="xMidYMid meet" style="width: 100%; height: 100%; transform: translate3d(0px, 0px, 0px); content-visibility: visible;"><defs><clipPath id="__lottie_element_13"><rect width="32" height="32" x="0" y="0"></rect></clipPath></defs><g clip-path="url(#__lottie_element_13)"><g transform="matrix(0.9961947202682495,0.08715574443340302,-0.08715574443340302,0.9961947202682495,14.812000274658203,15.031000137329102)" opacity="1" style="display: block;"><g opacity="1" transform="matrix(1,0,0,1,1.187999963760376,0.968999981880188)"><path stroke-linecap="round" stroke-linejoin="miter" fill-opacity="0" stroke-miterlimit="4" stroke="rgb(48,48,68)" stroke-opacity="1" stroke-width="3" d=" M11.812000274658203,0.8700000047683716 C11.366000175476074,7.000999927520752 6.24399995803833,11.843999862670898 0,11.843999862670898 C-6.536703586578369,11.843999862670898 -11.843999862670898,6.536703586578369 -11.843999862670898,0 C-11.843999862670898,-6.536703586578369 -6.536703586578369,-11.843999862670898 0,-11.843999862670898 C0,-11.843999862670898 0,-11.843999862670898 0,-11.843999862670898 C2.378999948501587,-11.843999862670898 4.59499979019165,-11.140999794006348 6.452000141143799,-9.932000160217285"></path></g></g><g transform="matrix(0.9961947202682495,0.08715574443340302,-0.08715574443340302,0.9961947202682495,14.812000274658203,15.031000137329102)" opacity="1" style="display: block;"><g opacity="1" transform="matrix(1,0,0,1,1.187999963760376,0.968999981880188)"><path stroke-linecap="round" stroke-linejoin="miter" fill-opacity="0" stroke-miterlimit="4" stroke="rgb(193,147,253)" stroke-opacity="1" stroke-width="3" d=" M11.734999656677246,1.6100000143051147 C10.949000358581543,7.386000156402588 5.991000175476074,11.843999862670898 0,11.843999862670898 C-6.536703586578369,11.843999862670898 -11.843999862670898,6.536703586578369 -11.843999862670898,0 C-11.843999862670898,-6.536703586578369 -6.536703586578369,-11.843999862670898 0,-11.843999862670898 C0,-11.843999862670898 0,-11.843999862670898 0,-11.843999862670898 C2.378999948501587,-11.843999862670898 4.59499979019165,-11.140999794006348 6.452000141143799,-9.932000160217285"></path></g></g><g transform="matrix(1,0,0,1,24.299999237060547,6.060999870300293)" opacity="1" style="display: block;"><g opacity="1" transform="matrix(1,0,0,1,0,0)"><path fill="rgb(193,147,253)" fill-opacity="1" d=" M-1.8109999895095825,0.4740000069141388 C-1.8109999895095825,0.4740000069141388 -3.7170000076293945,2.38100004196167 -3.7170000076293945,2.38100004196167 C-4.314000129699707,2.9779999256134033 -3.8919999599456787,3.997999906539917 -3.0480000972747803,3.997999906539917 C-3.0480000972747803,3.997999906539917 2.6630001068115234,3.997999906539917 2.6630001068115234,3.997999906539917 C3.3989999294281006,3.997999906539917 3.996999979019165,3.4000000953674316 3.996999979019165,2.6640000343322754 C3.996999979019165,2.6640000343322754 3.996999979019165,-3.0460000038146973 3.996999979019165,-3.0460000038146973 C3.996999979019165,-3.8910000324249268 2.9749999046325684,-4.315000057220459 2.378999948501587,-3.7179999351501465 C2.378999948501587,-3.7179999351501465 -1.812000036239624,0.4729999899864197 -1.812000036239624,0.4729999899864197 C-1.812000036239624,0.4729999899864197 -1.8109999895095825,0.4740000069141388 -1.8109999895095825,0.4740000069141388z"></path></g></g></g></svg>