<svg width="25" height="25" viewBox="0 0 25 25" fill="none" xmlns="http://www.w3.org/2000/svg"><path d="M10.9356 2.34265C10.4566 2.34265 10.0471 2.68125 9.95514 3.15125L9.62116 4.86609C8.8004 5.17645 8.04148 5.61006 7.37507 6.1571L5.73053 5.5907C5.27753 5.4347 4.77913 5.62201 4.53913 6.03601L3.03132 8.64929C2.79232 9.06429 2.8793 9.59115 3.2403 9.90515L4.55866 11.0516C4.4901 11.473 4.44538 11.9019 4.44538 12.3427C4.44538 12.7834 4.4901 13.2123 4.55866 13.6337L3.2403 14.7802C2.8793 15.0942 2.79232 15.621 3.03132 16.036L4.53913 18.6493C4.77813 19.0643 5.27753 19.2516 5.73053 19.0966L7.37507 18.5302C8.04126 19.0769 8.80077 19.509 9.62116 19.8192L9.95514 21.5341C10.0471 22.0041 10.4566 22.3427 10.9356 22.3427H13.9551C14.4341 22.3427 14.8436 22.0041 14.9356 21.5341L15.2696 19.8192C16.0904 19.5089 16.8493 19.0752 17.5157 18.5282L19.1602 19.0946C19.6132 19.2506 20.1116 19.0643 20.3516 18.6493L21.8594 16.0341C22.0984 15.6191 22.0115 15.0942 21.6505 14.7802L20.3321 13.6337C20.4007 13.2123 20.4454 12.7834 20.4454 12.3427C20.4454 11.9019 20.4007 11.473 20.3321 11.0516L21.6505 9.90515C22.0115 9.59115 22.0984 9.06429 21.8594 8.64929L20.3516 6.03601C20.1126 5.62101 19.6132 5.43375 19.1602 5.58875L17.5157 6.15515C16.8495 5.60845 16.09 5.17631 15.2696 4.86609L14.9356 3.15125C14.8436 2.68125 14.4341 2.34265 13.9551 2.34265H10.9356ZM12.4454 8.34265C14.6544 8.34265 16.4454 10.1337 16.4454 12.3427C16.4454 14.5517 14.6544 16.3427 12.4454 16.3427C10.2364 16.3427 8.44538 14.5517 8.44538 12.3427C8.44538 10.1337 10.2364 8.34265 12.4454 8.34265Z" fill="#F9FAFB"></path></svg>